<svg width="2288" height="2352" viewBox="0 0 2288 2352" fill="none" xmlns="http://www.w3.org/2000/svg">
<path d="M92 2226.5H274L321 2344H332L191 1987H178L33.5 2344H44.5L92 2226.5ZM270 2216.5H96L184 1997H185L270 2216.5ZM363.598 2344V2176.5H498.098C518.764 2176.5 535.264 2178.67 547.598 2183C559.931 2187 569.431 2193 576.098 2201C582.764 2208.67 587.098 2218.33 589.098 2230C591.431 2241.33 592.598 2254.33 592.598 2269C592.598 2274.67 592.598 2281.17 592.598 2288.5C592.931 2295.5 593.264 2302.5 593.598 2309.5C594.264 2316.5 595.098 2323.17 596.098 2329.5C597.098 2335.5 598.431 2340.33 600.098 2344H611.098C609.431 2341.67 608.098 2337.5 607.098 2331.5C606.098 2325.5 605.264 2318.83 604.598 2311.5C603.931 2304.17 603.431 2296.83 603.098 2289.5C602.764 2281.83 602.598 2275.5 602.598 2270.5C602.598 2256.17 601.764 2243.33 600.098 2232C598.431 2220.67 595.098 2210.83 590.098 2202.5C585.098 2194.17 577.931 2187.5 568.598 2182.5C559.264 2177.17 547.098 2173.5 532.098 2171.5V2170.5C557.098 2164.83 576.264 2154.17 589.598 2138.5C602.931 2122.5 609.264 2102.5 608.598 2078.5C607.931 2047.17 598.931 2024.17 581.598 2009.5C564.264 1994.5 536.931 1987 499.598 1987H353.598V2344H363.598ZM363.598 2166.5V1997H502.098C536.098 1997 560.598 2004.17 575.598 2018.5C590.598 2032.5 598.264 2052.17 598.598 2077.5C598.598 2093.17 595.764 2106.67 590.098 2118C584.431 2129 576.931 2138.17 567.598 2145.5C558.264 2152.83 547.431 2158.17 535.098 2161.5C523.098 2164.83 510.431 2166.5 497.098 2166.5H363.598ZM963.262 2204H953.262C950.595 2223.67 945.428 2242 937.762 2259C930.095 2276 920.095 2290.67 907.762 2303C895.428 2315.33 880.762 2325 863.762 2332C846.762 2339 827.595 2342.5 806.262 2342.5C782.262 2342.5 760.762 2337.67 741.762 2328C723.095 2318.33 707.262 2305.5 694.262 2289.5C681.262 2273.5 671.428 2255 664.762 2234C658.095 2213 654.762 2191.17 654.762 2168.5C654.762 2149.83 657.428 2130 662.762 2109C668.428 2088 677.428 2068.67 689.762 2051C702.095 2033 718.262 2018.17 738.262 2006.5C758.595 1994.5 783.428 1988.5 812.762 1988.5C832.095 1988.5 849.595 1991.67 865.262 1998C881.262 2004 894.928 2012 906.262 2022C917.928 2032 927.095 2043.33 933.762 2056C940.428 2068.33 944.262 2081 945.262 2094H955.262C954.928 2083 951.762 2070.83 945.762 2057.5C939.762 2044.17 930.762 2031.67 918.762 2020C907.095 2008 892.428 1998.17 874.762 1990.5C857.095 1982.5 836.428 1978.5 812.762 1978.5C782.428 1978.5 756.595 1984.33 735.262 1996C713.928 2007.67 696.595 2022.67 683.262 2041C669.928 2059.33 660.095 2079.83 653.762 2102.5C647.762 2124.83 644.762 2146.83 644.762 2168.5C644.762 2195.17 648.762 2219.83 656.762 2242.5C664.762 2264.83 675.762 2284.17 689.762 2300.5C704.095 2316.5 721.095 2329.17 740.762 2338.5C760.762 2347.5 782.595 2352 806.262 2352C828.928 2352 849.262 2348.33 867.262 2341C885.262 2333.67 900.762 2323.5 913.762 2310.5C927.095 2297.5 937.928 2282 946.262 2264C954.595 2245.67 960.262 2225.67 963.262 2204ZM1011.55 2163H1261.55V2344H1271.55V1987H1261.55V2153H1011.55V1987H1001.55V2344H1011.55V2163ZM1325.77 1987V2344H1335.77V1987H1325.77ZM1630.73 1987L1499.73 2331H1498.73L1363.73 1987H1354.23L1493.73 2344H1504.73L1640.73 1987H1630.73ZM1668.77 2334V2163H1882.27V2153H1668.77V1997H1895.77V1987H1658.77V2344H1897.77V2334H1668.77Z" fill="white"/>
<path d="M912.836 1783.14C912.836 1783.14 615.735 1612.18 153.375 1346.13C78.5803 1196.53 -31.9027 918.476 8.70799 594.503C22.4363 484.952 37.7234 373.498 117.195 262.387C218.434 120.822 413.119 -5.25083 406.501 0.168546C828.415 35.1169 1250.36 70.0917 1672.27 105.04C1556.02 146.994 1271.6 267.198 1057.45 559.528C1021.73 608.276 752.225 986.575 822.371 1398.58C822.371 1398.58 823.656 1406.06 912.781 1783.14H912.836Z" fill="white"/>
<path d="M967.048 1573.39C927.121 1569.08 879.892 1218.93 1021.31 891.655C1051.09 822.737 1114.94 674.907 1256.38 542.066C1337.06 466.274 1491.46 349.797 1491.46 349.797L2033.95 507.117C2033.95 507.117 1803.82 580.98 1690.38 629.49C1348.95 775.416 1165.45 1075.57 1129.82 1136.4C986.218 1381.57 997.021 1576.64 967.075 1573.41L967.048 1573.39Z" fill="white"/>
<path d="M1057.49 1713.22C1018.66 1693.89 1100.73 1448.2 1202.16 1258.73C1239.76 1188.46 1395.78 897.112 1618.06 786.768C1641.49 775.137 1798.88 699.371 1798.88 699.371L2287.11 944.089C2287.11 944.089 1881.88 998.283 1599.98 1153.86C1218.76 1364.26 1105.05 1736.85 1057.49 1713.22Z" fill="white"/>
</svg>
