<svg width="456" height="437" viewBox="0 0 456 437" fill="none" xmlns="http://www.w3.org/2000/svg">
<path d="M14.72 371.8H58.4L69.68 400H72.32L38.48 314.32H35.36L0.68 400H3.32L14.72 371.8ZM57.44 369.4H15.68L36.8 316.72H37.04L57.44 369.4ZM79.9034 400V359.8H112.183C117.143 359.8 121.103 360.32 124.063 361.36C127.023 362.32 129.303 363.76 130.903 365.68C132.503 367.52 133.543 369.84 134.023 372.64C134.583 375.36 134.863 378.48 134.863 382C134.863 383.36 134.863 384.92 134.863 386.68C134.943 388.36 135.023 390.04 135.103 391.72C135.263 393.4 135.463 395 135.703 396.52C135.943 397.96 136.263 399.12 136.663 400H139.303C138.903 399.44 138.583 398.44 138.343 397C138.103 395.56 137.903 393.96 137.743 392.2C137.583 390.44 137.463 388.68 137.383 386.92C137.303 385.08 137.263 383.56 137.263 382.36C137.263 378.92 137.063 375.84 136.663 373.12C136.263 370.4 135.463 368.04 134.263 366.04C133.063 364.04 131.343 362.44 129.103 361.24C126.863 359.96 123.943 359.08 120.343 358.6V358.36C126.343 357 130.943 354.44 134.143 350.68C137.343 346.84 138.863 342.04 138.703 336.28C138.543 328.76 136.383 323.24 132.223 319.72C128.063 316.12 121.503 314.32 112.543 314.32H77.5034V400H79.9034ZM79.9034 357.4V316.72H113.143C121.303 316.72 127.183 318.44 130.783 321.88C134.383 325.24 136.223 329.96 136.303 336.04C136.303 339.8 135.623 343.04 134.263 345.76C132.903 348.4 131.103 350.6 128.863 352.36C126.623 354.12 124.023 355.4 121.063 356.2C118.183 357 115.143 357.4 111.943 357.4H79.9034ZM223.823 366.4H221.423C220.783 371.12 219.543 375.52 217.703 379.6C215.863 383.68 213.463 387.2 210.503 390.16C207.543 393.12 204.023 395.44 199.943 397.12C195.863 398.8 191.263 399.64 186.143 399.64C180.383 399.64 175.223 398.48 170.663 396.16C166.183 393.84 162.383 390.76 159.263 386.92C156.143 383.08 153.783 378.64 152.183 373.6C150.583 368.56 149.783 363.32 149.783 357.88C149.783 353.4 150.423 348.64 151.703 343.6C153.063 338.56 155.223 333.92 158.183 329.68C161.143 325.36 165.023 321.8 169.823 319C174.703 316.12 180.663 314.68 187.703 314.68C192.343 314.68 196.543 315.44 200.303 316.96C204.143 318.4 207.423 320.32 210.143 322.72C212.943 325.12 215.143 327.84 216.743 330.88C218.343 333.84 219.263 336.88 219.503 340H221.903C221.823 337.36 221.063 334.44 219.623 331.24C218.183 328.04 216.023 325.04 213.143 322.24C210.343 319.36 206.823 317 202.583 315.16C198.343 313.24 193.383 312.28 187.703 312.28C180.423 312.28 174.223 313.68 169.103 316.48C163.983 319.28 159.823 322.88 156.623 327.28C153.423 331.68 151.063 336.6 149.543 342.04C148.103 347.4 147.383 352.68 147.383 357.88C147.383 364.28 148.343 370.2 150.263 375.64C152.183 381 154.823 385.64 158.183 389.56C161.623 393.4 165.703 396.44 170.423 398.68C175.223 400.84 180.463 401.92 186.143 401.92C191.583 401.92 196.463 401.04 200.783 399.28C205.103 397.52 208.823 395.08 211.943 391.96C215.143 388.84 217.743 385.12 219.743 380.8C221.743 376.4 223.103 371.6 223.823 366.4ZM235.411 356.56H295.411V400H297.811V314.32H295.411V354.16H235.411V314.32H233.011V400H235.411V356.56ZM310.824 314.32V400H313.224V314.32H310.824ZM384.015 314.32L352.575 396.88H352.335L319.935 314.32H317.655L351.135 400H353.775L386.415 314.32H384.015ZM393.146 397.6V356.56H444.386V354.16H393.146V316.72H447.626V314.32H390.746V400H448.106V397.6H393.146Z" fill="white"/>
<path d="M209.315 278C209.315 278 162.996 251.346 90.9118 209.868C79.251 186.544 62.0262 143.194 68.3576 92.6856C70.4979 75.6061 72.8813 58.2299 85.2712 40.9073C101.055 18.8367 131.407 -0.818628 130.375 0.0262771C196.154 5.47488 261.936 10.9276 327.714 16.3762C309.59 22.917 265.249 41.6574 231.861 87.2328C226.293 94.8328 184.275 153.811 195.211 218.045C195.211 218.045 195.412 219.211 209.307 278H209.315Z" fill="white"/>
<path d="M217.767 245.298C211.542 244.626 204.179 190.037 226.226 139.013C230.869 128.269 240.824 105.221 262.876 84.5107C275.453 72.6944 299.525 54.5352 299.525 54.5352L384.101 79.0621C384.101 79.0621 348.223 90.5776 330.538 98.1405C277.308 120.891 248.699 167.686 243.144 177.17C220.756 215.393 222.44 245.805 217.771 245.302L217.767 245.298Z" fill="white"/>
<path d="M231.868 267.098C225.813 264.086 238.608 225.78 254.422 196.242C260.284 185.287 284.608 139.864 319.262 122.661C322.916 120.847 347.453 109.035 347.453 109.035L423.57 147.188C423.57 147.188 360.393 155.637 316.444 179.892C257.01 212.695 239.282 270.783 231.868 267.098Z" fill="white"/>
</svg>
